<svg width="90" height="82" viewBox="0 0 90 82" fill="none" xmlns="http://www.w3.org/2000/svg">
<ellipse cx="45" cy="41" rx="45" ry="41" fill="#F03857"/>
<path d="M29.1562 48.9219C29.1562 49.1016 29.125 49.2617 29.0625 49.4023C29 49.543 28.9141 49.6602 28.8047 49.7539C28.7031 49.8477 28.5781 49.918 28.4297 49.9648C28.2891 50.0039 28.1445 50.0234 27.9961 50.0234H26.6836C26.4102 50.0234 26.1719 49.9961 25.9688 49.9414C25.7734 49.8867 25.5898 49.7891 25.418 49.6484C25.2539 49.5 25.0938 49.3047 24.9375 49.0625C24.7812 48.8125 24.6055 48.4922 24.4102 48.1016L20.6367 41.0117C20.418 40.5898 20.1953 40.1367 19.9688 39.6523C19.7422 39.1602 19.5391 38.6836 19.3594 38.2227H19.3359C19.3672 38.7852 19.3906 39.3477 19.4062 39.9102C19.4219 40.4648 19.4297 41.0391 19.4297 41.6328V49.5664C19.4297 49.6445 19.4062 49.7148 19.3594 49.7773C19.3203 49.8398 19.2461 49.8945 19.1367 49.9414C19.0352 49.9805 18.8945 50.0117 18.7148 50.0352C18.5352 50.0586 18.3047 50.0703 18.0234 50.0703C17.75 50.0703 17.5234 50.0586 17.3438 50.0352C17.1641 50.0117 17.0234 49.9805 16.9219 49.9414C16.8203 49.8945 16.75 49.8398 16.7109 49.7773C16.6719 49.7148 16.6523 49.6445 16.6523 49.5664V35.9375C16.6523 35.5703 16.7578 35.2969 16.9688 35.1172C17.1875 34.9297 17.4531 34.8359 17.7656 34.8359H19.418C19.7148 34.8359 19.9648 34.8633 20.168 34.918C20.3711 34.9648 20.5508 35.0469 20.707 35.1641C20.8711 35.2812 21.0234 35.4453 21.1641 35.6562C21.3047 35.8594 21.4492 36.1133 21.5977 36.418L24.5508 41.9609C24.7227 42.2969 24.8906 42.6289 25.0547 42.957C25.2266 43.2773 25.3906 43.6016 25.5469 43.9297C25.7031 44.25 25.8555 44.5664 26.0039 44.8789C26.1523 45.1914 26.2969 45.5039 26.4375 45.8164H26.4492C26.4258 45.2695 26.4062 44.6992 26.3906 44.1055C26.3828 43.5117 26.3789 42.9453 26.3789 42.4062V35.293C26.3789 35.2148 26.4023 35.1445 26.4492 35.082C26.4961 35.0195 26.5742 34.9648 26.6836 34.918C26.793 34.8711 26.9375 34.8398 27.1172 34.8242C27.2969 34.8008 27.5273 34.7891 27.8086 34.7891C28.0742 34.7891 28.2969 34.8008 28.4766 34.8242C28.6562 34.8398 28.793 34.8711 28.8867 34.918C28.9883 34.9648 29.0586 35.0195 29.0977 35.082C29.1367 35.1445 29.1562 35.2148 29.1562 35.293V48.9219ZM46.1133 42.2422C46.1133 43.5 45.957 44.625 45.6445 45.6172C45.332 46.6094 44.8672 47.4531 44.25 48.1484C43.6328 48.8359 42.8672 49.3633 41.9531 49.7305C41.0469 50.0898 39.9961 50.2695 38.8008 50.2695C37.6211 50.2695 36.5898 50.1172 35.707 49.8125C34.832 49.5 34.1016 49.0273 33.5156 48.3945C32.9297 47.7617 32.4883 46.957 32.1914 45.9805C31.9023 45.0039 31.7578 43.8477 31.7578 42.5117C31.7578 41.2852 31.9141 40.1836 32.2266 39.207C32.5391 38.2227 33.0039 37.3867 33.6211 36.6992C34.2383 36.0117 35 35.4844 35.9062 35.1172C36.8203 34.75 37.8789 34.5664 39.082 34.5664C40.2305 34.5664 41.2422 34.7188 42.1172 35.0234C43 35.3281 43.7344 35.7969 44.3203 36.4297C44.9141 37.0625 45.3594 37.8633 45.6562 38.832C45.9609 39.793 46.1133 40.9297 46.1133 42.2422ZM42.8789 42.4062C42.8789 41.6094 42.8164 40.8867 42.6914 40.2383C42.5664 39.582 42.3516 39.0234 42.0469 38.5625C41.75 38.0938 41.3516 37.7344 40.8516 37.4844C40.3516 37.2266 39.7266 37.0977 38.9766 37.0977C38.2188 37.0977 37.5859 37.2422 37.0781 37.5312C36.5703 37.8125 36.1602 38.1914 35.8477 38.668C35.5352 39.1445 35.3125 39.7031 35.1797 40.3438C35.0547 40.9766 34.9922 41.6484 34.9922 42.3594C34.9922 43.1875 35.0547 43.9336 35.1797 44.5977C35.3047 45.2539 35.5156 45.8164 35.8125 46.2852C36.1094 46.7539 36.5078 47.1133 37.0078 47.3633C37.5078 47.6055 38.1367 47.7266 38.8945 47.7266C39.6523 47.7266 40.2852 47.5859 40.793 47.3047C41.3008 47.0234 41.7109 46.6406 42.0234 46.1562C42.3359 45.6719 42.5547 45.1094 42.6797 44.4688C42.8125 43.8203 42.8789 43.1328 42.8789 42.4062ZM55.8398 49.4609C55.8008 49.5938 55.75 49.7031 55.6875 49.7891C55.625 49.8672 55.5234 49.9297 55.3828 49.9766C55.2422 50.0156 55.0508 50.0391 54.8086 50.0469C54.5664 50.0625 54.25 50.0703 53.8594 50.0703C53.5469 50.0703 53.2773 50.0664 53.0508 50.0586C52.832 50.0586 52.6445 50.0508 52.4883 50.0352C52.332 50.0195 52.2031 49.9961 52.1016 49.9648C52.0078 49.9336 51.9258 49.8945 51.8555 49.8477C51.793 49.8008 51.7422 49.7461 51.7031 49.6836C51.6719 49.6133 51.6406 49.5273 51.6094 49.4258L47.0977 35.9844C47.0039 35.7031 46.9453 35.4805 46.9219 35.3164C46.9062 35.1523 46.9453 35.0312 47.0391 34.9531C47.1406 34.8672 47.3086 34.8164 47.543 34.8008C47.7773 34.7773 48.1055 34.7656 48.5273 34.7656C48.8867 34.7656 49.168 34.7734 49.3711 34.7891C49.5742 34.8047 49.7305 34.832 49.8398 34.8711C49.9492 34.9102 50.0234 34.9688 50.0625 35.0469C50.1094 35.125 50.1523 35.2227 50.1914 35.3398L53.8828 47.0352H53.8945L57.5156 35.3984C57.5469 35.2656 57.5859 35.1602 57.6328 35.082C57.6797 34.9961 57.7578 34.9297 57.8672 34.8828C57.9844 34.8359 58.1484 34.8047 58.3594 34.7891C58.5703 34.7734 58.8594 34.7656 59.2266 34.7656C59.5859 34.7656 59.8633 34.7773 60.0586 34.8008C60.2617 34.8242 60.3984 34.8828 60.4688 34.9766C60.5469 35.0625 60.5703 35.1875 60.5391 35.3516C60.5156 35.5156 60.457 35.7344 60.3633 36.0078L55.8398 49.4609ZM75.668 42.2422C75.668 43.5 75.5117 44.625 75.1992 45.6172C74.8867 46.6094 74.4219 47.4531 73.8047 48.1484C73.1875 48.8359 72.4219 49.3633 71.5078 49.7305C70.6016 50.0898 69.5508 50.2695 68.3555 50.2695C67.1758 50.2695 66.1445 50.1172 65.2617 49.8125C64.3867 49.5 63.6562 49.0273 63.0703 48.3945C62.4844 47.7617 62.043 46.957 61.7461 45.9805C61.457 45.0039 61.3125 43.8477 61.3125 42.5117C61.3125 41.2852 61.4688 40.1836 61.7812 39.207C62.0938 38.2227 62.5586 37.3867 63.1758 36.6992C63.793 36.0117 64.5547 35.4844 65.4609 35.1172C66.375 34.75 67.4336 34.5664 68.6367 34.5664C69.7852 34.5664 70.7969 34.7188 71.6719 35.0234C72.5547 35.3281 73.2891 35.7969 73.875 36.4297C74.4688 37.0625 74.9141 37.8633 75.2109 38.832C75.5156 39.793 75.668 40.9297 75.668 42.2422ZM72.4336 42.4062C72.4336 41.6094 72.3711 40.8867 72.2461 40.2383C72.1211 39.582 71.9062 39.0234 71.6016 38.5625C71.3047 38.0938 70.9062 37.7344 70.4062 37.4844C69.9062 37.2266 69.2812 37.0977 68.5312 37.0977C67.7734 37.0977 67.1406 37.2422 66.6328 37.5312C66.125 37.8125 65.7148 38.1914 65.4023 38.668C65.0898 39.1445 64.8672 39.7031 64.7344 40.3438C64.6094 40.9766 64.5469 41.6484 64.5469 42.3594C64.5469 43.1875 64.6094 43.9336 64.7344 44.5977C64.8594 45.2539 65.0703 45.8164 65.3672 46.2852C65.6641 46.7539 66.0625 47.1133 66.5625 47.3633C67.0625 47.6055 67.6914 47.7266 68.4492 47.7266C69.207 47.7266 69.8398 47.5859 70.3477 47.3047C70.8555 47.0234 71.2656 46.6406 71.5781 46.1562C71.8906 45.6719 72.1094 45.1094 72.2344 44.4688C72.3672 43.8203 72.4336 43.1328 72.4336 42.4062Z" fill="white"/>
</svg>
